<svg xmlns="http://www.w3.org/2000/svg" width="32" height="29">
    <path fill="#222" fill-rule="evenodd" d="M31.899 7.565l-5.406 12.412c-.197.433-.611.709-1.084.709H10.554c-.533 0-1.006-.355-1.144-.867L4.577 2.364H1.184C.533 2.364 0 1.832 0 1.182 0 .532.533 0 1.184 0h4.28c.533 0 1.007.354 1.145.867l4.833 17.455H24.62l4.379-10.048H14.401c-.651 0-1.184-.532-1.184-1.182 0-.65.533-1.182 1.184-1.182h16.413c.394 0 .769.197.986.532.217.335.257.749.099 1.123zM9.429 23.641c1.48 0 2.683 1.202 2.683 2.679 0 1.478-1.203 2.68-2.683 2.68-1.479 0-2.682-1.202-2.682-2.68 0-1.477 1.203-2.679 2.682-2.679zm16.591 0c1.48-.098 2.762 1.025 2.861 2.483.039.728-.178 1.418-.651 1.95-.474.552-1.125.867-1.835.926h-.197c-1.401 0-2.565-1.103-2.663-2.502-.099-1.458 1.006-2.758 2.485-2.857z"/>
</svg>
